<svg version="1.2" xmlns="http://www.w3.org/2000/svg" width="19" height="19"><path fill-rule="evenodd" d="M9.2 4.4q1.3 0 2.3.6 1.1.7 1.8 1.8.6 1.1.6 2.3 0 1.3-.6 2.4-.7 1.1-1.8 1.7-1 .6-2.3.6-1.3 0-2.4-.6-1.1-.6-1.7-1.7-.6-1.1-.6-2.4 0-1.2.6-2.3.6-1.1 1.7-1.8 1.1-.6 2.4-.6zm0 7.8q1.3 0 2.2-.9.9-.9.9-2.2 0-1.2-.9-2.1-.9-1-2.2-1Q7.9 6 7 7q-.9.9-.9 2.1 0 1.3.9 2.2.9.9 2.2.9zm6-8q0-.4-.3-.8-.3-.3-.8-.3-.4 0-.8.3-.3.4-.3.8 0 .5.3.8.4.3.8.3.5 0 .8-.3.3-.3.3-.8zm3.1 1.1q.1 1.2.1 3.8 0 2.7-.1 3.9 0 1.1-.3 2-.4 1-1.2 1.8-.7.7-1.7 1.1-.9.3-2.1.4H5.4q-1.2-.1-2.1-.4-1-.4-1.8-1.1Q.8 16 .4 15q-.3-.9-.3-2Q0 11.8 0 9.1q0-2.6.1-3.8 0-1.2.3-2 .4-1.1 1.1-1.8Q2.3.7 3.3.3 4.2.1 5.4 0q1.1-.1 3.8-.1 2.7 0 3.8.1 1.2.1 2.1.3 1 .4 1.7 1.2.8.7 1.2 1.8.3.8.3 2zm-1.9 9.2q.2-.7.3-2.2V5.9q-.1-1.5-.3-2.2-.5-1.3-1.8-1.8-.7-.2-2.2-.3H6q-1.5.1-2.2.3-1.3.5-1.8 1.8-.2.7-.3 2.2-.1.9-.1 2.6v1.3q0 1.6.1 2.5.1 1.5.3 2.2.5 1.3 1.8 1.8.7.2 2.2.3.9.1 2.5.1h1.3q1.7 0 2.6-.1 1.5-.1 2.2-.3 1.3-.5 1.8-1.8z" style="fill:#6a6a77"/></svg>